<svg xmlns="http://www.w3.org/2000/svg" viewBox="49.152 36.91304347826087 495.616 492.17391304347825" version="1.1" style="max-height: 500px" width="495.616" height="492.17391304347825">
<path fill="#4E6CFD" d="m0 0h30l17 4 12 5 15 10 8 7 5 6 2 1-1-11v-17l1-2h47l14 1 1 1v170l-1 62-2 1h-58l-1-1-1-22v-99l-2-13-5-12-7-11-10-10-14-8-12-4-6-1h-18l-12 3-16 8-12 10-7 10-5 11-3 11-1 7v9l4 17 7 14 12 13 14 9 15 5 9 1h9l13-2 4-2 4 1 14 25 8 13v5l-14 8-13 5-13 3-21 1-19-2-17-5-18-8-11-7-10-8-15-15-10-15-10-21-5-18-2-19 1-19 4-18 6-15 6-12 10-15 12-13 12-10 13-8 12-6 15-5z" transform="translate(1830,204)"/>
<path fill="#4E6CFD" d="m0 0h30l17 3 19 7 16 9 13 10 13 13 11 15 8 15 5 13 3 13 2 14v18l-3 18-4 14-9 19-9 13-9 10-2 3h-2l-1 3-13 10-15 9-20 8-19 4h-33l-18-4-17-7-15-8-14-11-10-10-10-13-8-14-6-14-5-19-1-7v-27l4-20 8-20 7-12 12-16 10-10 15-11 12-7 15-6 17-4zm6 55-10 3-12 7-9 8-7 10-6 13-3 12v23l3 13 8 16 7 9 9 8 14 7 13 2 14-1 12-5 10-7 7-7 7-11 5-12 3-12v-23l-4-15-8-15-10-11-14-9-10-3z" transform="translate(1296,204)"/>
<path fill="#4E6CFD" d="m0 0h220l1 1v54l-144 1-11-1v273l-2 1h-64l-1-1v-327z" transform="translate(599,113)"/>
<path fill="#4E6CFD" d="m0 0 4 2 12 24 9 25 6 24 3 21v23h-155v3l155 1v23l-3 20-6 25-7 20-13 28-6-2-17-10-25-14-20-12-26-15-28-16-29-17-14-8-1-2 3-6 2-15h14v-2h-14l-2-16-4-8 2-4 29-17 28-16 71-41 23-13z" transform="translate(501,162)"/>
<path fill="#4E6CFD" d="m0 0 13 5 12 2v15h4l-1-9 1-6 12-2 9-3 10 17 14 24 14 25 16 27 14 24 16 28 10 16-1 4-15 8-20 8-22 7-19 4-17 2-20 1-2-5v-149h-3v153l-5 1-21-1-24-4-21-6-19-7-24-11-4-2 1-6 16-28 10-17 12-21 15-25 15-27 21-36z" transform="translate(270,325)"/>
<path fill="#4E6CFD" d="m0 0h15l1 2-1 18h3v-20h13l23 2 22 4 16 5 20 8 19 10-2 5-13 24-14 24-16 27-16 28-15 26-17 29-3 1-16-4-1-1v-15l-2 1v14l-4 2-16 4h-4l-7-14-15-25-12-21-15-27-15-25-12-21-13-23-3-5 1-4 22-11 23-9 26-6 15-2zm15 36v117l4-1-1-116z" transform="translate(280,44)"/>
<path fill="#4E6CFD" d="m0 0 6 1 23 13 72 42 27 15 17 10 20 12-1 6-2 7-1 10h-8l-7 1h15l2 15v5l-17 9-16 10-21 12-23 13-20 12-23 13-41 24h-4l-5-10-8-20-7-22-5-24-2-14v-21l1-1h12v-2l-13-1v-22l4-25 7-26 10-25zm-2 115-1 3 13 1h109l3-1-1-3z" transform="translate(87,166)"/>
<path fill="#4E6CFD" d="m0 0h33l22 4 15 6 14 9 11 11 9 14 6 15 5 25 2 27v126l-2 1h-61l-1-1-1-136-1-13-4-13-6-8-8-6-9-3-6-1h-20l-16 4-7 1-14-25-7-13 1-4 9-7 16-8 14-4z" transform="translate(1052,204)"/>
<path fill="#4E6CFD" d="m0 0h46l16 1v233l-2 1h-61l-1-1v-233z" transform="translate(932,207)"/>
<path fill="#4E6CFD" d="m0 0h39l22 1 1 2v231l-2 1h-60l-1-1v-233z" transform="translate(840,207)"/>
<path fill="#4E6CFD" d="m0 0h66l-1 5-11 26-14 34-17 42-15 36-15 37-17 41-5 12-2 2h-48l-6-1 11-31 10-27 13-37 17-47 15-42 16-44 2-5z" transform="translate(1643,207)"/>
<path fill="#4E6CFD" d="m0 0 4 1 8 11 5 4-1 5-16 27-10 17-10 18-16 27-16 28-15 26-7 12-2 5-6-2-17-12-10-8-10-9-12-12-11-14-12-16-7-12v-3l22-12 24-14 15-9 49-28 48-28z" transform="translate(250,306)"/>
<path fill="#4E6CFD" d="m0 0 4 1 8 16 14 25 28 48 13 23 13 22 15 25 1 4-10 9-5 7-5-2-20-12-26-15-28-16-17-10-22-13-46-26 1-4 10-16 10-13 9-10 7-8 12-11 16-12 15-10z" transform="translate(174,77)"/>
<path fill="#4E6CFD" d="m0 0 15 8 18 11 21 12 52 30 15 9 18 10 25 14-2 5-8 12-13 17-9 10-7 8-11 10-17 13-15 10-5-1-11-20-13-23-15-26-13-22-14-25-13-22-10-17-4-5 2-4 8-6z" transform="translate(339,309)"/>
<path fill="#4E6CFD" d="m0 0 5 1 17 11 13 10 14 12 13 13 11 14 11 16 2 5-8 5-19 11-21 12-27 16-25 14-52 30-9 6-5-1-5-6-9-6 2-4 12-20 45-78 10-17 14-25 7-12 3-6z" transform="translate(414,76)"/>
<path fill="#4E6CFD" d="m0 0h66l3 5 12 35 18 49 19 55 9 24-1 4-1 2h-2l-2 4-23 23-4 5-5 5-1 2-3-1-13-32-12-30-16-39-12-30-16-39-14-35-2-4z" transform="translate(1447,207)"/>
<path fill="#4E6CFD" d="m0 0h103l1 1v59l-1 1h-72l-5-8-26-52z" transform="translate(676,249)"/>
<path fill="#4E6CFD" d="m0 0h29l32 1 1 1v52l-1 1h-62v-54z" transform="translate(840,113)"/>
<path fill="#FDFDFD" d="m0 0 2 1v11h-3v-8z" transform="translate(296,350)"/>
<path fill="#FDFDFD" d="m0 0h2v11l-3-1v-8z" transform="translate(296,67)"/>
</svg>
